<svg width="532" height="532" viewBox="0 0 532 532" fill="none" xmlns="http://www.w3.org/2000/svg">
<path d="M524.593 205.513C498.841 89.6235 392.095 2.36091 273.58 0.00993261C267.489 -0.12836 265.55 1.11627 265.55 7.61602C265.827 76.7623 265.689 145.909 265.689 215.055C265.689 217.406 266.658 220.033 264.443 222.661C254.889 213.119 245.475 203.577 235.922 194.311C232.876 191.407 231.491 188.364 231.353 184.077C230.245 159.185 228.999 134.43 227.753 109.538C227.614 106.495 228.307 103.729 229.276 100.825C237.168 77.3155 244.921 53.6674 252.813 30.1577C255.997 20.4772 259.181 10.6585 262.643 0.286518C242.013 0.839688 222.769 3.32895 203.524 7.75431C198.678 8.86065 196.74 11.0733 195.355 15.4987C191.34 28.2216 186.771 40.8062 182.895 53.5291C181.233 59.0608 179.71 60.4438 174.172 57.4013C161.85 50.625 149.112 44.6784 136.513 38.4553C134.298 37.3489 132.36 36.1043 129.591 37.7638C111.869 48.6889 95.2547 60.8586 80.4404 75.5177C82.1018 77.8686 84.4555 78.2835 86.3938 79.3899C112.146 92.2511 137.898 105.112 163.65 117.973C166.557 119.356 169.188 120.463 169.326 124.75C169.742 138.856 170.572 152.823 171.542 166.791C171.818 170.801 170.434 171.908 166.557 171.631C153.266 170.801 139.836 170.11 126.406 169.695C121.837 169.557 119.484 167.759 117.545 163.748C107.438 143.143 97.0546 122.537 86.8092 101.932C83.2094 94.7403 79.4712 87.6874 75.733 80.0813C60.6418 95.4318 48.3196 112.027 37.3819 129.728C35.7205 132.494 36.9666 134.43 38.0742 136.643C44.5814 149.642 50.9502 162.642 57.7343 175.365C59.9496 179.652 58.9804 181.035 54.6884 182.418C40.8432 186.705 27.1365 191.545 13.4298 195.97C11.2146 196.662 8.99936 196.939 8.3071 199.843C3.32284 220.172 0.276903 240.777 0 262.351C2.90748 261.521 5.12271 260.83 7.19948 260.138C38.2126 249.905 69.2258 239.671 100.239 229.299C103.146 228.331 105.915 227.501 108.961 227.639C134.298 228.884 159.635 230.129 184.971 231.373C188.017 231.512 190.648 232.203 193.002 234.554C202.001 243.82 211.139 252.947 220.415 261.936C223.322 264.84 223.046 266.361 220.277 268.989C211.416 277.425 202.832 286.137 194.386 294.85C191.479 297.892 188.294 299.275 184.141 299.552C164.757 300.381 145.374 301.211 126.129 302.594C112.561 303.562 99.6852 302.456 86.9476 297.339C76.7022 293.19 66.0414 290.148 55.5191 286.69C37.2435 280.744 18.8294 274.797 0 268.574C0.276903 289.456 3.04594 309.232 7.75329 328.731C8.584 332.327 10.107 334.125 13.7067 335.231C27.275 339.518 40.7048 344.358 54.4115 348.507C58.9804 349.89 60.2265 351.273 57.7343 355.975C50.9502 368.698 44.5814 381.836 38.0742 394.697C37.105 396.633 35.7205 398.431 37.3819 401.058C48.3196 418.898 60.6418 435.631 75.8715 450.982C77.256 448.493 78.2252 446.418 79.3328 444.344C92.2088 418.621 105.223 393.037 117.961 367.177C119.761 363.443 122.114 361.645 126.268 361.507C139.421 361.092 152.574 360.4 165.727 359.571C170.295 359.294 172.372 360.124 171.957 365.379C170.849 378.517 170.157 391.654 169.88 404.654C169.742 409.356 167.803 411.43 163.927 413.366C137.898 426.228 112.007 439.227 86.1169 452.227C84.317 453.056 82.1018 453.471 81.1326 455.822C95.2547 469.79 111.177 481.545 127.929 492.193C131.529 494.406 134.298 494.406 137.898 492.47C150.358 485.97 163.096 480.023 175.418 473.385C179.987 470.896 181.51 472.141 182.895 476.704C187.187 490.257 191.756 503.81 196.324 517.362C197.017 519.575 197.294 521.926 200.063 522.617C220.415 527.596 241.044 530.638 262.089 530.915C262.366 527.319 260.843 524.554 259.874 521.788C249.767 491.225 239.66 460.662 229.414 430.1C228.584 427.472 227.753 424.845 227.891 422.079C229.137 396.771 230.384 371.464 231.63 346.156C231.768 343.943 231.491 341.593 233.429 339.656C243.813 329.284 254.197 319.051 265.827 307.434C265.827 311.86 265.827 314.487 265.827 316.976C265.827 386.123 265.827 455.269 265.689 524.415C265.689 529.809 266.935 531.33 272.473 531.192C298.363 530.085 323.838 526.213 348.483 517.915C480.15 473.524 554.776 341.316 524.593 205.513ZM328.13 462.184C327.3 462.46 326.33 462.598 324.808 462.875C324.808 460.248 324.808 457.897 324.808 455.684C324.808 328.87 324.808 202.194 324.808 75.3794C324.808 67.4967 324.946 67.3584 332.422 70.1243C412.724 100.549 459.659 158.078 470.874 243.128C483.473 338.688 420.201 434.802 328.13 462.184Z" fill="#FC1CAE"/>
</svg>
